<?xml version="1.0" standalone="no"?><!DOCTYPE svg PUBLIC "-//W3C//DTD SVG 1.1//EN" "http://www.w3.org/Graphics/SVG/1.1/DTD/svg11.dtd"><svg t="1692283921773" class="icon" viewBox="0 0 1024 1024" version="1.1" xmlns="http://www.w3.org/2000/svg" p-id="1415" xmlns:xlink="http://www.w3.org/1999/xlink" width="200" height="200"><path d="M272.76 595.15a27.48 27.48 0 0 1-24.23-14.48 296 296 0 1 1 548.28-69.08 27.5 27.5 0 1 1-53.4-13.16 242.59 242.59 0 0 0 7-57.89A241 241 0 1 0 297 554.61a27.52 27.52 0 0 1-24.2 40.54z" fill="#FFBE69" p-id="1416"></path><path d="M731.49 587.36H563.72V431.64A51.66 51.66 0 0 0 512.06 380a51.66 51.66 0 0 0-51.65 51.66v254.19L396 621.43a51.67 51.67 0 0 0-73.06 0 51.66 51.66 0 0 0 0 73.05l144.3 144.31a51.37 51.37 0 0 0 16.22 11 51.38 51.38 0 0 0 28.6 8.65h219.43a51.65 51.65 0 0 0 51.65-51.66V639a51.65 51.65 0 0 0-51.65-51.64z" fill="#FFAB31" p-id="1417"></path><path d="M384.19 546.2a27.47 27.47 0 0 1-22.8-12.09 177.66 177.66 0 0 1-30.58-100c0-98.45 80.09-178.55 178.55-178.55s178.55 80.1 178.55 178.55a176.75 176.75 0 0 1-18.46 79.13 27.5 27.5 0 1 1-49.29-24.4 122.25 122.25 0 0 0 12.75-54.73 123.55 123.55 0 1 0-226 69.14 27.5 27.5 0 0 1-22.75 42.91z" fill="#FFCC8F" p-id="1418"></path></svg>